<?xml version="1.0" standalone="no"?>
<!DOCTYPE svg PUBLIC "-//W3C//DTD SVG 20010904//EN"
 "http://www.w3.org/TR/2001/REC-SVG-20010904/DTD/svg10.dtd">
<svg version="1.0" xmlns="http://www.w3.org/2000/svg"
 width="400.000000pt" height="400.000000pt" viewBox="0 0 400.000000 400.000000"
 preserveAspectRatio="xMidYMid meet">
<metadata>
Created by potrace 1.11, written by Peter Selinger 2001-2013
</metadata>
<g transform="translate(0.000000,400.000000) scale(0.100000,-0.100000)"
fill="#000000" stroke="none">
<path d="M0 2000 l0 -2000 2000 0 2000 0 0 2000 0 2000 -2000 0 -2000 0 0
-2000z m2140 1715 l0 -95 -60 0 -60 0 0 95 0 95 60 0 60 0 0 -95z m860 -370
l0 -465 -60 0 -60 0 0 465 0 465 60 0 60 0 0 -465z m-1235 422 c59 -27 195
-148 195 -173 0 -11 -72 -64 -88 -64 -4 0 -30 23 -57 51 -28 27 -64 59 -81 70
-50 30 -136 42 -211 29 -130 -22 -217 -82 -271 -185 -24 -45 -27 -61 -27 -156
0 -101 2 -109 35 -175 58 -114 152 -170 300 -181 77 -5 172 12 232 43 27 14
28 17 28 99 l0 85 -165 0 -165 0 0 60 0 60 224 0 c195 0 225 -2 230 -16 8 -21
8 -308 0 -329 -8 -19 -119 -77 -191 -98 -223 -66 -464 7 -576 176 -55 83 -77
160 -77 272 0 150 41 248 143 342 95 88 203 124 357 120 90 -2 114 -7 165 -30z
m988 -200 c23 -14 53 -36 66 -50 l23 -26 -40 -42 -40 -43 -36 32 c-44 38 -70
46 -141 40 -38 -3 -72 -15 -122 -44 l-68 -39 -3 -258 -2 -257 -60 0 -60 0 0
350 0 350 60 0 c57 0 60 -1 60 -25 l0 -26 33 17 c114 60 249 68 330 21z m841
18 c38 -8 86 -26 107 -39 38 -26 99 -86 99 -98 0 -4 -20 -23 -45 -43 l-44 -37
-31 36 c-50 56 -123 79 -245 74 -113 -4 -178 -27 -183 -64 -5 -37 39 -61 146
-79 222 -39 283 -54 327 -81 61 -39 90 -93 89 -167 -1 -81 -36 -130 -128 -177
-65 -33 -76 -35 -183 -39 -65 -2 -142 2 -176 9 -68 13 -152 54 -207 100 l-34
30 39 40 c21 22 43 40 48 40 4 0 25 -14 46 -30 77 -63 213 -92 325 -71 116 22
175 75 145 130 -22 40 -72 58 -243 86 -88 15 -179 36 -202 47 -108 50 -145
162 -83 249 58 82 259 121 433 84z m-1454 -355 l0 -350 -60 0 -60 0 0 350 0
350 60 0 60 0 0 -350z m850 -585 l0 -95 -60 0 -60 0 0 88 c0 49 3 92 7 95 3 4
30 7 60 7 l53 0 0 -95z m656 -145 c22 -9 55 -33 72 -51 55 -58 62 -102 62
-386 l0 -253 -60 0 -60 0 0 250 c0 288 -4 310 -67 337 -74 30 -221 -1 -312
-67 l-41 -30 0 -245 0 -245 -60 0 -60 0 0 350 0 350 60 0 60 0 0 -31 c0 -21 4
-29 13 -26 178 79 290 93 393 47z m-656 -340 l0 -350 -60 0 -60 0 0 350 0 350
60 0 60 0 0 -350z m-610 185 l0 -145 -147 0 -148 0 0 145 0 145 148 0 147 0 0
-145z m330 0 l0 -145 -150 0 -150 0 0 145 0 145 150 0 150 0 0 -145z m-330
-330 l0 -146 -146 3 -145 3 -3 138 c-1 75 0 139 2 142 3 3 70 5 149 5 l143 0
0 -145z m328 3 l-3 -143 -145 0 -145 0 -3 143 -3 142 151 0 151 0 -3 -142z
m592 -481 l0 -144 58 28 c77 38 151 52 243 47 115 -7 186 -55 217 -147 8 -22
12 -126 12 -303 l0 -269 -57 3 -58 3 -5 271 c-6 307 -4 301 -86 324 -56 16
-144 0 -229 -41 -103 -50 -94 -23 -97 -305 l-3 -249 -57 -3 -58 -3 0 466 0
465 60 0 60 0 0 -143z m-1462 66 l-3 -58 -167 -3 -168 -2 0 -395 0 -395 -60 0
-60 0 0 395 0 395 -165 0 -165 0 0 60 0 60 395 0 396 0 -3 -57z m272 -150
c139 -52 227 -174 233 -326 l2 -62 -302 -3 c-233 -2 -303 -5 -303 -15 1 -47
66 -133 125 -165 50 -28 236 -22 358 11 53 15 102 27 107 27 6 0 10 -25 10
-55 l0 -54 -52 -16 c-285 -85 -457 -67 -576 59 -67 71 -93 144 -93 256 0 50 6
102 15 128 35 99 113 174 219 213 68 24 195 25 257 2z m843 -11 c53 -24 175
-138 161 -151 -5 -5 -28 -18 -51 -31 l-42 -23 -55 51 c-45 41 -67 53 -113 62
-131 28 -267 -31 -314 -134 -12 -27 -19 -64 -19 -111 0 -87 22 -138 79 -187
49 -42 104 -58 197 -58 86 0 140 25 196 90 l42 48 48 -24 c26 -13 48 -29 48
-34 0 -5 -19 -33 -43 -62 -82 -101 -193 -145 -337 -135 -147 10 -261 80 -317
195 -39 79 -45 220 -14 303 38 101 117 174 229 210 79 26 236 21 305 -9z
m-389 -956 c64 -27 103 -106 51 -106 -14 0 -25 5 -25 10 0 6 -11 22 -25 35
-48 49 -155 24 -155 -35 0 -27 32 -46 114 -66 93 -23 131 -57 130 -113 -2 -77
-61 -115 -167 -109 -65 4 -71 6 -103 41 -42 46 -46 87 -9 87 18 0 25 -5 25
-18 0 -27 42 -62 82 -69 50 -8 107 13 114 42 14 55 -4 68 -148 109 -65 19 -88
44 -88 96 0 43 24 74 70 94 44 19 91 20 134 2z m-1234 -78 l0 -83 100 3 100 3
0 80 c0 78 0 79 25 79 l25 0 -2 -192 c-3 -191 -3 -193 -25 -196 -21 -3 -22 0
-25 85 l-3 88 -97 3 -97 3 -3 -88 c-3 -77 -5 -88 -22 -91 -33 -7 -32 -18 -27
321 1 65 2 67 26 67 25 0 25 -1 25 -82z m625 57 c0 -19 -8 -20 -107 -23 l-108
-3 0 -54 0 -54 98 -3 c92 -3 97 -4 100 -25 3 -23 1 -23 -97 -23 l-101 0 0 -65
0 -65 110 0 c101 0 110 -2 110 -19 0 -23 -42 -29 -175 -27 l-90 2 -3 192 -2
193 132 -3 c125 -3 133 -4 133 -23z m143 -147 l2 -168 101 0 c98 0 100 0 97
-22 -3 -22 -7 -23 -113 -23 -60 -1 -118 1 -127 3 -16 4 -18 22 -18 194 l0 189
28 -3 27 -3 3 -167z m700 -20 l-3 -193 -25 0 -25 0 -3 193 -2 192 30 0 30 0
-2 -192z m262 44 l95 -148 5 145 c5 142 6 146 28 149 l22 3 0 -189 c0 -198 -2
-207 -43 -193 -10 4 -61 72 -113 151 l-94 145 0 -147 c0 -108 -3 -147 -12
-151 -35 -12 -38 2 -38 194 l0 189 28 0 c24 0 38 -17 122 -148z m310 58 c0
-49 3 -90 8 -90 4 0 48 41 97 90 79 80 94 90 125 90 l35 0 -77 -76 c-43 -42
-78 -79 -78 -81 0 -3 34 -52 77 -110 60 -83 73 -107 62 -114 -8 -5 -18 -9 -22
-9 -14 0 -58 51 -107 123 -25 37 -50 67 -56 67 -5 0 -22 -13 -37 -28 -24 -25
-27 -36 -27 -96 0 -58 -2 -67 -16 -62 -9 3 -20 6 -25 6 -5 0 -9 81 -9 190 l0
190 25 0 c25 0 25 -1 25 -90z m388 -102 c-3 -185 -4 -193 -23 -193 -19 0 -20
8 -23 193 l-2 192 25 0 25 0 -2 -192z"/>
<path d="M1930 1351 c-91 -28 -162 -93 -185 -168 l-6 -23 235 0 c129 0 237 3
239 8 10 15 -37 94 -79 130 -61 55 -135 74 -204 53z"/>
</g>
</svg>
